<mxfile host="app.diagrams.net" modified="2023-11-12T06:02:52.446Z" agent="Mozilla/5.0 (Windows NT 10.0; Win64; x64) AppleWebKit/537.36 (KHTML, like Gecko) Chrome/119.0.0.0 Safari/537.36" etag="eMSGh9xo-b-hCj1IAeDc" version="22.1.0" type="device">
  <diagram name="Page-1" id="S2qG7fZoJjYjWYJ-7feO">
    <mxGraphModel dx="880" dy="478" grid="1" gridSize="10" guides="1" tooltips="1" connect="1" arrows="1" fold="1" page="1" pageScale="1" pageWidth="850" pageHeight="1100" math="0" shadow="0">
      <root>
        <mxCell id="0" />
        <mxCell id="1" parent="0" />
        <mxCell id="U5Q_foWMYdS0tH5qmamG-7" style="edgeStyle=orthogonalEdgeStyle;rounded=0;orthogonalLoop=1;jettySize=auto;html=1;entryX=0.5;entryY=0;entryDx=0;entryDy=0;" edge="1" parent="1" source="U5Q_foWMYdS0tH5qmamG-1" target="U5Q_foWMYdS0tH5qmamG-3">
          <mxGeometry relative="1" as="geometry" />
        </mxCell>
        <mxCell id="U5Q_foWMYdS0tH5qmamG-1" value="BEGIN" style="ellipse;whiteSpace=wrap;html=1;" vertex="1" parent="1">
          <mxGeometry x="365" y="40" width="120" height="50" as="geometry" />
        </mxCell>
        <mxCell id="U5Q_foWMYdS0tH5qmamG-2" value="END" style="ellipse;whiteSpace=wrap;html=1;" vertex="1" parent="1">
          <mxGeometry x="365" y="350" width="120" height="50" as="geometry" />
        </mxCell>
        <mxCell id="U5Q_foWMYdS0tH5qmamG-8" style="edgeStyle=orthogonalEdgeStyle;rounded=0;orthogonalLoop=1;jettySize=auto;html=1;entryX=0.5;entryY=0;entryDx=0;entryDy=0;" edge="1" parent="1" source="U5Q_foWMYdS0tH5qmamG-3" target="U5Q_foWMYdS0tH5qmamG-4">
          <mxGeometry relative="1" as="geometry" />
        </mxCell>
        <mxCell id="U5Q_foWMYdS0tH5qmamG-3" value="Input Math = 8&lt;br&gt;Physical = 7.5&lt;br&gt;Chemistry = 7" style="shape=parallelogram;perimeter=parallelogramPerimeter;whiteSpace=wrap;html=1;fixedSize=1;" vertex="1" parent="1">
          <mxGeometry x="365" y="120" width="120" height="50" as="geometry" />
        </mxCell>
        <mxCell id="U5Q_foWMYdS0tH5qmamG-9" style="edgeStyle=orthogonalEdgeStyle;rounded=0;orthogonalLoop=1;jettySize=auto;html=1;entryX=0.5;entryY=0;entryDx=0;entryDy=0;" edge="1" parent="1" source="U5Q_foWMYdS0tH5qmamG-4" target="U5Q_foWMYdS0tH5qmamG-6">
          <mxGeometry relative="1" as="geometry" />
        </mxCell>
        <mxCell id="U5Q_foWMYdS0tH5qmamG-4" value="Average = (&lt;span style=&quot;box-sizing: border-box; color: rgb(228, 86, 73); font-family: SFMono-Regular, Menlo, Monaco, Consolas, &amp;quot;Liberation Mono&amp;quot;, &amp;quot;Courier New&amp;quot;, monospace; font-size: 12.6px; text-align: left;&quot; class=&quot;hljs-name&quot;&gt;Math&lt;/span&gt;&lt;span style=&quot;color: rgb(56, 58, 66); font-family: SFMono-Regular, Menlo, Monaco, Consolas, &amp;quot;Liberation Mono&amp;quot;, &amp;quot;Courier New&amp;quot;, monospace; font-size: 12.6px; text-align: left; background-color: rgb(250, 250, 250);&quot;&gt; + Physics + Chemistry) / &lt;/span&gt;&lt;span style=&quot;box-sizing: border-box; color: rgb(152, 104, 1); font-family: SFMono-Regular, Menlo, Monaco, Consolas, &amp;quot;Liberation Mono&amp;quot;, &amp;quot;Courier New&amp;quot;, monospace; font-size: 12.6px; text-align: left;&quot; class=&quot;hljs-number&quot;&gt;3&lt;/span&gt;" style="whiteSpace=wrap;html=1;" vertex="1" parent="1">
          <mxGeometry x="273" y="200" width="305" height="40" as="geometry" />
        </mxCell>
        <mxCell id="U5Q_foWMYdS0tH5qmamG-10" style="edgeStyle=orthogonalEdgeStyle;rounded=0;orthogonalLoop=1;jettySize=auto;html=1;entryX=0.5;entryY=0;entryDx=0;entryDy=0;" edge="1" parent="1" source="U5Q_foWMYdS0tH5qmamG-6" target="U5Q_foWMYdS0tH5qmamG-2">
          <mxGeometry relative="1" as="geometry" />
        </mxCell>
        <mxCell id="U5Q_foWMYdS0tH5qmamG-6" value="Display Average" style="shape=parallelogram;perimeter=parallelogramPerimeter;whiteSpace=wrap;html=1;fixedSize=1;" vertex="1" parent="1">
          <mxGeometry x="365" y="280" width="120" height="30" as="geometry" />
        </mxCell>
      </root>
    </mxGraphModel>
  </diagram>
</mxfile>
